<svg width="51" height="70" viewBox="0 0 51 70" fill="none" xmlns="http://www.w3.org/2000/svg">
<path d="M20.0592 42.2981V28.7886H30.9287V42.2981C30.9287 43.7841 32.1515 45 33.6461 45H41.7982C43.2927 45 44.5155 43.7841 44.5155 42.2981V23.3849H49.1351C50.3851 23.3849 50.9829 21.8448 50.0318 21.0342L27.3146 0.688982C26.282 -0.229661 24.7059 -0.229661 23.6733 0.688982L0.956116 21.0342C0.0322103 21.8448 0.602858 23.3849 1.85285 23.3849H6.47238V42.2981C6.47238 43.7841 7.69519 45 9.18974 45H17.3419C18.8364 45 20.0592 43.7841 20.0592 42.2981Z" fill="#707071"/>
<path d="M4.71635 67V56.8182H5.94931V61.3523H11.3783V56.8182H12.6112V67H11.3783V62.446H5.94931V67H4.71635ZM18.0228 67.1591C17.3334 67.1591 16.7285 66.995 16.2082 66.6669C15.6911 66.3388 15.2868 65.8797 14.9951 65.2898C14.7068 64.6998 14.5626 64.0104 14.5626 63.2216C14.5626 62.4261 14.7068 61.7318 14.9951 61.1385C15.2868 60.5452 15.6911 60.0845 16.2082 59.7564C16.7285 59.4283 17.3334 59.2642 18.0228 59.2642C18.7122 59.2642 19.3154 59.4283 19.8325 59.7564C20.3528 60.0845 20.7572 60.5452 21.0455 61.1385C21.3372 61.7318 21.483 62.4261 21.483 63.2216C21.483 64.0104 21.3372 64.6998 21.0455 65.2898C20.7572 65.8797 20.3528 66.3388 19.8325 66.6669C19.3154 66.995 18.7122 67.1591 18.0228 67.1591ZM18.0228 66.1051C18.5465 66.1051 18.9774 65.9709 19.3154 65.7024C19.6535 65.4339 19.9037 65.081 20.0661 64.6435C20.2285 64.206 20.3097 63.732 20.3097 63.2216C20.3097 62.7112 20.2285 62.2356 20.0661 61.7947C19.9037 61.3539 19.6535 60.9976 19.3154 60.7259C18.9774 60.4541 18.5465 60.3182 18.0228 60.3182C17.4991 60.3182 17.0683 60.4541 16.7302 60.7259C16.3921 60.9976 16.1419 61.3539 15.9795 61.7947C15.8171 62.2356 15.7359 62.7112 15.7359 63.2216C15.7359 63.732 15.8171 64.206 15.9795 64.6435C16.1419 65.081 16.3921 65.4339 16.7302 65.7024C17.0683 65.9709 17.4991 66.1051 18.0228 66.1051ZM23.2741 67V59.3636H24.4076V60.5568H24.507C24.6661 60.1491 24.923 59.8326 25.2776 59.6072C25.6323 59.3786 26.0581 59.2642 26.5553 59.2642C27.0591 59.2642 27.4784 59.3786 27.8131 59.6072C28.1512 59.8326 28.4147 60.1491 28.6036 60.5568H28.6831C28.8787 60.1624 29.172 59.8492 29.5631 59.6172C29.9542 59.3819 30.4232 59.2642 30.9701 59.2642C31.6528 59.2642 32.2113 59.478 32.6455 59.9055C33.0797 60.3298 33.2968 60.991 33.2968 61.8892V67H32.1235V61.8892C32.1235 61.3258 31.9694 60.9231 31.6611 60.6811C31.3529 60.4392 30.99 60.3182 30.5724 60.3182C30.0354 60.3182 29.6195 60.4806 29.3245 60.8054C29.0295 61.1269 28.882 61.5346 28.882 62.0284V67H27.6888V61.7699C27.6888 61.3357 27.548 60.986 27.2662 60.7209C26.9845 60.4524 26.6216 60.3182 26.1775 60.3182C25.8725 60.3182 25.5875 60.3994 25.3224 60.5618C25.0605 60.7242 24.8484 60.9496 24.686 61.2379C24.5269 61.523 24.4474 61.8527 24.4474 62.2273V67H23.2741ZM38.6437 67.1591C37.9079 67.1591 37.2732 66.9967 36.7396 66.6719C36.2093 66.3438 35.8 65.8864 35.5116 65.2997C35.2266 64.7098 35.0841 64.0237 35.0841 63.2415C35.0841 62.4593 35.2266 61.7699 35.5116 61.1733C35.8 60.5734 36.201 60.1061 36.7148 59.7713C37.2318 59.4332 37.835 59.2642 38.5244 59.2642C38.9221 59.2642 39.3149 59.3305 39.7027 59.4631C40.0905 59.5956 40.4434 59.8111 40.7616 60.1094C41.0798 60.4044 41.3334 60.7955 41.5223 61.2827C41.7112 61.7699 41.8057 62.3698 41.8057 63.0824V63.5795H35.9193V62.5653H40.6125C40.6125 62.1345 40.5263 61.75 40.354 61.4119C40.1849 61.0739 39.943 60.8071 39.6281 60.6115C39.3166 60.416 38.9487 60.3182 38.5244 60.3182C38.0571 60.3182 37.6527 60.4342 37.3113 60.6662C36.9733 60.8949 36.7131 61.1932 36.5308 61.5611C36.3485 61.929 36.2574 62.3234 36.2574 62.7443V63.4205C36.2574 63.9972 36.3568 64.486 36.5557 64.8871C36.7578 65.2848 37.0379 65.5881 37.3959 65.7969C37.7538 66.0024 38.1698 66.1051 38.6437 66.1051C38.952 66.1051 39.2304 66.062 39.479 65.9759C39.7309 65.8864 39.9479 65.7538 40.1302 65.5781C40.3125 65.3991 40.4534 65.1771 40.5528 64.9119L41.6863 65.2301C41.567 65.6146 41.3665 65.9527 41.0848 66.2443C40.8031 66.5327 40.455 66.758 40.0407 66.9205C39.6265 67.0795 39.1608 67.1591 38.6437 67.1591Z" fill="#1E1F26"/>
</svg>
