<svg width="46" height="70" viewBox="0 0 46 70" fill="none" xmlns="http://www.w3.org/2000/svg">
<path d="M34.25 45.457V40.957H41V34.207H45.5V42.082C45.5 42.982 45.05 43.657 44.375 44.332C43.7 45.007 42.8 45.457 42.125 45.457H34.25ZM11.75 45.457H3.875C2.975 45.457 2.3 45.007 1.625 44.332C0.95 43.657 0.5 42.757 0.5 42.082V34.207H5V40.957H11.75V45.457ZM34.25 0.457031H42.125C43.025 0.457031 43.7 0.907031 44.375 1.58203C45.05 2.25703 45.5 2.93203 45.5 3.83203V11.707H41V4.95703H34.25V0.457031ZM11.75 0.457031V4.95703H5V11.707H0.5V3.83203C0.5 2.93203 0.95 2.25703 1.625 1.58203C2.3 0.907031 2.975 0.457031 3.875 0.457031H11.75ZM38.75 20.707H7.25V25.207H38.75V20.707Z" fill="#707071"/>
<path d="M11.9701 58.9066C11.9104 58.4028 11.6685 58.0117 11.2442 57.7333C10.82 57.4549 10.2996 57.3157 9.68315 57.3157C9.23239 57.3157 8.83798 57.3886 8.49991 57.5344C8.16516 57.6803 7.90332 57.8808 7.7144 58.136C7.52879 58.3912 7.43599 58.6812 7.43599 59.006C7.43599 59.2778 7.50062 59.5115 7.62988 59.707C7.76246 59.8993 7.93149 60.06 8.13699 60.1893C8.34248 60.3152 8.55791 60.4196 8.78329 60.5025C9.00867 60.582 9.21582 60.6467 9.40474 60.6964L10.4388 60.9748C10.704 61.0444 10.999 61.1405 11.3238 61.2631C11.6519 61.3858 11.9651 61.5531 12.2634 61.7653C12.565 61.9741 12.8136 62.2425 13.0091 62.5707C13.2047 62.8988 13.3025 63.3015 13.3025 63.7788C13.3025 64.329 13.1583 64.8261 12.8699 65.2702C12.5849 65.7144 12.1673 66.0674 11.6171 66.3292C11.0702 66.591 10.4057 66.7219 9.62349 66.7219C8.89432 66.7219 8.26293 66.6043 7.72931 66.369C7.19901 66.1336 6.7814 65.8055 6.47647 65.3846C6.17486 64.9637 6.00417 64.4748 5.9644 63.918H7.23713C7.27027 64.3024 7.39953 64.6206 7.62491 64.8725C7.8536 65.1211 8.14196 65.3067 8.48997 65.4293C8.84129 65.5487 9.21913 65.6083 9.62349 65.6083C10.0941 65.6083 10.5167 65.5321 10.8912 65.3796C11.2658 65.2238 11.5624 65.0084 11.7812 64.7333C11.9999 64.4549 12.1093 64.1301 12.1093 63.7589C12.1093 63.4208 12.0148 63.1457 11.8259 62.9336C11.637 62.7215 11.3884 62.5491 11.0802 62.4165C10.7719 62.284 10.4388 62.168 10.0809 62.0685L8.82804 61.7106C8.03258 61.4819 7.40285 61.1554 6.93883 60.7312C6.47482 60.3069 6.24281 59.7518 6.24281 59.0657C6.24281 58.4956 6.39693 57.9985 6.70517 57.5742C7.01672 57.1467 7.43433 56.8152 7.95801 56.5799C8.485 56.3413 9.0733 56.2219 9.72292 56.2219C10.3792 56.2219 10.9625 56.3396 11.4729 56.5749C11.9833 56.8069 12.3877 57.1251 12.686 57.5295C12.9876 57.9338 13.1467 58.3929 13.1633 58.9066H11.9701ZM18.2728 66.7021C17.5569 66.7021 16.9404 66.533 16.4234 66.195C15.9063 65.8569 15.5086 65.3912 15.2302 64.7979C14.9518 64.2047 14.8126 63.5269 14.8126 62.7646C14.8126 61.989 14.9551 61.3046 15.2401 60.7113C15.5285 60.1147 15.9295 59.649 16.4433 59.3143C16.9603 58.9762 17.5635 58.8072 18.2529 58.8072C18.7899 58.8072 19.2738 58.9066 19.7046 59.1055C20.1355 59.3043 20.4885 59.5827 20.7636 59.9407C21.0387 60.2987 21.2094 60.7163 21.2757 61.1935H20.1024C20.0129 60.8455 19.814 60.5373 19.5058 60.2688C19.2008 59.997 18.7899 59.8612 18.2728 59.8612C17.8154 59.8612 17.4144 59.9805 17.0697 60.2191C16.7283 60.4544 16.4615 60.7875 16.2693 61.2184C16.0803 61.646 15.9859 62.1481 15.9859 62.7248C15.9859 63.3147 16.0787 63.8285 16.2643 64.266C16.4532 64.7035 16.7184 65.0432 17.0597 65.2852C17.4044 65.5271 17.8088 65.6481 18.2728 65.6481C18.5777 65.6481 18.8545 65.5951 19.1031 65.489C19.3517 65.3829 19.5621 65.2305 19.7345 65.0316C19.9068 64.8327 20.0294 64.5941 20.1024 64.3157H21.2757C21.2094 64.7665 21.0453 65.1725 20.7835 65.5337C20.5249 65.8917 20.1819 66.1767 19.7544 66.3888C19.3301 66.5977 18.8363 66.7021 18.2728 66.7021ZM25.238 66.7219C24.7541 66.7219 24.315 66.6308 23.9205 66.4485C23.5261 66.2629 23.2129 65.9961 22.9809 65.6481C22.7489 65.2968 22.6329 64.8725 22.6329 64.3754C22.6329 63.9379 22.7191 63.5832 22.8914 63.3114C23.0638 63.0363 23.2941 62.8209 23.5825 62.6651C23.8708 62.5094 24.189 62.3933 24.537 62.3171C24.8883 62.2376 25.2413 62.1746 25.596 62.1282C26.06 62.0685 26.4362 62.0238 26.7245 61.994C27.0162 61.9608 27.2283 61.9061 27.3609 61.8299C27.4968 61.7537 27.5647 61.6211 27.5647 61.4322V61.3924C27.5647 60.9019 27.4305 60.5207 27.162 60.2489C26.8969 59.9772 26.4942 59.8413 25.9539 59.8413C25.3938 59.8413 24.9546 59.9639 24.6365 60.2092C24.3183 60.4544 24.0945 60.7163 23.9653 60.9947L22.8517 60.5969C23.0505 60.1329 23.3157 59.7717 23.6471 59.5131C23.9819 59.2513 24.3464 59.069 24.7409 58.9663C25.1386 58.8602 25.5297 58.8072 25.9142 58.8072C26.1594 58.8072 26.4411 58.837 26.7593 58.8967C27.0808 58.953 27.3907 59.0707 27.689 59.2496C27.9906 59.4286 28.2409 59.6987 28.4397 60.06C28.6386 60.4213 28.738 60.9052 28.738 61.5117V66.543H27.5647V65.5089H27.5051C27.4255 65.6746 27.2929 65.8519 27.1073 66.0408C26.9217 66.2298 26.6748 66.3905 26.3666 66.5231C26.0583 66.6557 25.6821 66.7219 25.238 66.7219ZM25.417 65.668C25.881 65.668 26.2721 65.5768 26.5903 65.3945C26.9118 65.2122 27.1537 64.9769 27.3161 64.6886C27.4819 64.4002 27.5647 64.0969 27.5647 63.7788V62.7049C27.515 62.7646 27.4056 62.8192 27.2366 62.869C27.0709 62.9154 26.8786 62.9568 26.6599 62.9933C26.4445 63.0264 26.234 63.0562 26.0285 63.0827C25.8263 63.1059 25.6623 63.1258 25.5363 63.1424C25.2314 63.1822 24.9463 63.2468 24.6812 63.3363C24.4194 63.4225 24.2072 63.5534 24.0448 63.729C23.8857 63.9014 23.8062 64.1367 23.8062 64.435C23.8062 64.8427 23.957 65.1509 24.2586 65.3597C24.5635 65.5652 24.9497 65.668 25.417 65.668ZM32.0528 61.9492V66.543H30.8795V58.9066H32.0131V60.0998H32.1125C32.2915 59.712 32.5632 59.4004 32.9278 59.1651C33.2924 58.9265 33.7631 58.8072 34.3398 58.8072C34.8568 58.8072 35.3092 58.9132 35.697 59.1254C36.0848 59.3342 36.3864 59.6523 36.6018 60.0799C36.8173 60.5041 36.925 61.0411 36.925 61.6907V66.543H35.7517V61.7702C35.7517 61.1703 35.5959 60.703 35.2844 60.3683C34.9728 60.0302 34.5452 59.8612 34.0017 59.8612C33.6272 59.8612 33.2924 59.9424 32.9974 60.1048C32.7058 60.2672 32.4754 60.5041 32.3064 60.8157C32.1373 61.1272 32.0528 61.5051 32.0528 61.9492Z" fill="#1E1F26"/>
</svg>
