<svg width="51" height="70" viewBox="0 0 51 70" fill="none" xmlns="http://www.w3.org/2000/svg">
<path d="M20.0592 42.2981V28.7886H30.9287V42.2981C30.9287 43.7841 32.1515 45 33.6461 45H41.7982C43.2927 45 44.5155 43.7841 44.5155 42.2981V23.3849H49.1351C50.3851 23.3849 50.9829 21.8448 50.0318 21.0342L27.3146 0.688982C26.282 -0.229661 24.7059 -0.229661 23.6733 0.688982L0.956116 21.0342C0.0322103 21.8448 0.602858 23.3849 1.85285 23.3849H6.47238V42.2981C6.47238 43.7841 7.69519 45 9.18974 45H17.3419C18.8364 45 20.0592 43.7841 20.0592 42.2981Z" fill="#1E1F26"/>
<path d="M7.21635 67V56.8182H8.44931V61.3523H13.8783V56.8182H15.1112V67H13.8783V62.446H8.44931V67H7.21635ZM20.5228 67.1591C19.8334 67.1591 19.2285 66.995 18.7082 66.6669C18.1911 66.3388 17.7868 65.8797 17.4951 65.2898C17.2068 64.6998 17.0626 64.0104 17.0626 63.2216C17.0626 62.4261 17.2068 61.7318 17.4951 61.1385C17.7868 60.5452 18.1911 60.0845 18.7082 59.7564C19.2285 59.4283 19.8334 59.2642 20.5228 59.2642C21.2122 59.2642 21.8154 59.4283 22.3325 59.7564C22.8528 60.0845 23.2572 60.5452 23.5455 61.1385C23.8372 61.7318 23.983 62.4261 23.983 63.2216C23.983 64.0104 23.8372 64.6998 23.5455 65.2898C23.2572 65.8797 22.8528 66.3388 22.3325 66.6669C21.8154 66.995 21.2122 67.1591 20.5228 67.1591ZM20.5228 66.1051C21.0465 66.1051 21.4774 65.9709 21.8154 65.7024C22.1535 65.4339 22.4037 65.081 22.5661 64.6435C22.7285 64.206 22.8097 63.732 22.8097 63.2216C22.8097 62.7112 22.7285 62.2356 22.5661 61.7947C22.4037 61.3539 22.1535 60.9976 21.8154 60.7259C21.4774 60.4541 21.0465 60.3182 20.5228 60.3182C19.9991 60.3182 19.5683 60.4541 19.2302 60.7259C18.8921 60.9976 18.6419 61.3539 18.4795 61.7947C18.3171 62.2356 18.2359 62.7112 18.2359 63.2216C18.2359 63.732 18.3171 64.206 18.4795 64.6435C18.6419 65.081 18.8921 65.4339 19.2302 65.7024C19.5683 65.9709 19.9991 66.1051 20.5228 66.1051ZM25.7741 67V59.3636H26.9076V60.5568H27.007C27.1661 60.1491 27.423 59.8326 27.7776 59.6072C28.1323 59.3786 28.5581 59.2642 29.0553 59.2642C29.5591 59.2642 29.9784 59.3786 30.3131 59.6072C30.6512 59.8326 30.9147 60.1491 31.1036 60.5568H31.1831C31.3787 60.1624 31.672 59.8492 32.0631 59.6172C32.4542 59.3819 32.9232 59.2642 33.4701 59.2642C34.1528 59.2642 34.7113 59.478 35.1455 59.9055C35.5797 60.3298 35.7968 60.991 35.7968 61.8892V67H34.6235V61.8892C34.6235 61.3258 34.4694 60.9231 34.1611 60.6811C33.8529 60.4392 33.49 60.3182 33.0724 60.3182C32.5354 60.3182 32.1195 60.4806 31.8245 60.8054C31.5295 61.1269 31.382 61.5346 31.382 62.0284V67H30.1888V61.7699C30.1888 61.3357 30.048 60.986 29.7662 60.7209C29.4845 60.4524 29.1216 60.3182 28.6775 60.3182C28.3725 60.3182 28.0875 60.3994 27.8224 60.5618C27.5605 60.7242 27.3484 60.9496 27.186 61.2379C27.0269 61.523 26.9474 61.8527 26.9474 62.2273V67H25.7741ZM41.1437 67.1591C40.4079 67.1591 39.7732 66.9967 39.2396 66.6719C38.7093 66.3438 38.3 65.8864 38.0116 65.2997C37.7266 64.7098 37.5841 64.0237 37.5841 63.2415C37.5841 62.4593 37.7266 61.7699 38.0116 61.1733C38.3 60.5734 38.701 60.1061 39.2148 59.7713C39.7318 59.4332 40.335 59.2642 41.0244 59.2642C41.4221 59.2642 41.8149 59.3305 42.2027 59.4631C42.5905 59.5956 42.9434 59.8111 43.2616 60.1094C43.5798 60.4044 43.8334 60.7955 44.0223 61.2827C44.2112 61.7699 44.3057 62.3698 44.3057 63.0824V63.5795H38.4193V62.5653H43.1125C43.1125 62.1345 43.0263 61.75 42.854 61.4119C42.6849 61.0739 42.443 60.8071 42.1281 60.6115C41.8166 60.416 41.4487 60.3182 41.0244 60.3182C40.5571 60.3182 40.1527 60.4342 39.8113 60.6662C39.4733 60.8949 39.2131 61.1932 39.0308 61.5611C38.8485 61.929 38.7574 62.3234 38.7574 62.7443V63.4205C38.7574 63.9972 38.8568 64.486 39.0557 64.8871C39.2578 65.2848 39.5379 65.5881 39.8959 65.7969C40.2538 66.0024 40.6698 66.1051 41.1437 66.1051C41.452 66.1051 41.7304 66.062 41.979 65.9759C42.2309 65.8864 42.4479 65.7538 42.6302 65.5781C42.8125 65.3991 42.9534 65.1771 43.0528 64.9119L44.1863 65.2301C44.067 65.6146 43.8665 65.9527 43.5848 66.2443C43.3031 66.5327 42.955 66.758 42.5407 66.9205C42.1265 67.0795 41.6608 67.1591 41.1437 67.1591Z" fill="#1E1F26"/>
</svg>
