<svg width="41" height="70" viewBox="0 0 41 70" fill="none" xmlns="http://www.w3.org/2000/svg">
<path d="M27.6794 20.3309H37.7528V16.6153H30.2804L26.1519 9.74147C25.5326 8.70936 24.418 8.00753 23.1382 8.00753C22.7666 8.00753 22.4363 8.06945 22.106 8.17266L10.918 11.6612V22.3951H14.6336V14.8195L18.9891 13.4571L10.918 45.1016H14.6336L20.5579 28.3607L25.3675 34.7805V45.1016H29.0831V31.8699L23.9432 22.4984L25.4501 16.574M27.4317 7.53275C29.496 7.53275 31.1473 5.88138 31.1473 3.81716C31.1473 1.75294 29.496 0.101562 27.4317 0.101562C25.3675 0.101562 23.7161 1.75294 23.7161 3.81716C23.7161 5.88138 25.3675 7.53275 27.4317 7.53275Z" fill="#1E1F26"/>
<path d="M5.75799 63.7166H7.11026L8.24379 65.2081L8.54208 65.6058L10.2324 67.853H8.88015L7.76651 66.3615L7.4881 65.9837L5.75799 63.7166ZM10.65 61.8075C10.65 62.8814 10.4561 63.8094 10.0684 64.5916C9.68058 65.3738 9.14862 65.977 8.47248 66.4013C7.79634 66.8255 7.02409 67.0376 6.15572 67.0376C5.28735 67.0376 4.51509 66.8255 3.83896 66.4013C3.16282 65.977 2.63086 65.3738 2.24308 64.5916C1.85529 63.8094 1.6614 62.8814 1.6614 61.8075C1.6614 60.7337 1.85529 59.8056 2.24308 59.0234C2.63086 58.2412 3.16282 57.638 3.83896 57.2138C4.51509 56.7895 5.28735 56.5774 6.15572 56.5774C7.02409 56.5774 7.79634 56.7895 8.47248 57.2138C9.14862 57.638 9.68058 58.2412 10.0684 59.0234C10.4561 59.8056 10.65 60.7337 10.65 61.8075ZM9.45685 61.8075C9.45685 60.9259 9.30936 60.1818 9.01438 59.5753C8.72272 58.9688 8.32665 58.5097 7.82617 58.1982C7.32901 57.8866 6.77219 57.7308 6.15572 57.7308C5.53924 57.7308 4.98076 57.8866 4.48029 58.1982C3.98313 58.5097 3.58706 58.9688 3.29208 59.5753C3.00041 60.1818 2.85458 60.9259 2.85458 61.8075C2.85458 62.6892 3.00041 63.4332 3.29208 64.0398C3.58706 64.6463 3.98313 65.1054 4.48029 65.4169C4.98076 65.7285 5.53924 65.8842 6.15572 65.8842C6.77219 65.8842 7.32901 65.7285 7.82617 65.4169C8.32665 65.1054 8.72272 64.6463 9.01438 64.0398C9.30936 63.4332 9.45685 62.6892 9.45685 61.8075ZM17.3766 63.7763V59.2621H18.5499V66.8984H17.3766V65.6058H17.2971C17.1181 65.9936 16.8397 66.3234 16.4618 66.5952C16.084 66.8636 15.6067 66.9979 15.03 66.9979C14.5527 66.9979 14.1285 66.8935 13.7573 66.6847C13.3861 66.4725 13.0944 66.1544 12.8823 65.7301C12.6702 65.3026 12.5641 64.764 12.5641 64.1143V59.2621H13.7374V64.0348C13.7374 64.5916 13.8932 65.0357 14.2047 65.3672C14.5196 65.6986 14.9206 65.8643 15.4078 65.8643C15.6995 65.8643 15.9962 65.7898 16.2978 65.6406C16.6027 65.4915 16.8579 65.2628 17.0634 64.9545C17.2722 64.6463 17.3766 64.2536 17.3766 63.7763ZM23.9006 67.0575C23.1648 67.0575 22.5301 66.8951 21.9964 66.5703C21.4661 66.2422 21.0568 65.7848 20.7685 65.1982C20.4834 64.6082 20.3409 63.9221 20.3409 63.1399C20.3409 62.3577 20.4834 61.6683 20.7685 61.0717C21.0568 60.4718 21.4579 60.0045 21.9716 59.6697C22.4886 59.3317 23.0919 59.1626 23.7812 59.1626C24.179 59.1626 24.5717 59.2289 24.9595 59.3615C25.3473 59.4941 25.7003 59.7095 26.0185 60.0078C26.3366 60.3028 26.5902 60.6939 26.7791 61.1811C26.968 61.6683 27.0625 62.2682 27.0625 62.9808V63.478H21.1761V62.4638H25.8693C25.8693 62.0329 25.7831 61.6484 25.6108 61.3104C25.4418 60.9723 25.1998 60.7055 24.8849 60.5099C24.5734 60.3144 24.2055 60.2166 23.7812 60.2166C23.3139 60.2166 22.9096 60.3326 22.5682 60.5646C22.2301 60.7933 21.9699 61.0916 21.7876 61.4595C21.6054 61.8274 21.5142 62.2218 21.5142 62.6428V63.3189C21.5142 63.8956 21.6136 64.3845 21.8125 64.7855C22.0147 65.1832 22.2947 65.4865 22.6527 65.6953C23.0107 65.9008 23.4266 66.0036 23.9006 66.0036C24.2088 66.0036 24.4872 65.9605 24.7358 65.8743C24.9877 65.7848 25.2048 65.6522 25.3871 65.4766C25.5694 65.2976 25.7102 65.0755 25.8097 64.8104L26.9432 65.1286C26.8239 65.513 26.6233 65.8511 26.3416 66.1428C26.0599 66.4311 25.7119 66.6565 25.2976 66.8189C24.8833 66.978 24.4176 67.0575 23.9006 67.0575ZM34.2564 60.9723L33.2024 61.2706C33.1361 61.0949 33.0384 60.9242 32.9091 60.7585C32.7831 60.5895 32.6108 60.4503 32.392 60.3409C32.1733 60.2315 31.8932 60.1768 31.5518 60.1768C31.0845 60.1768 30.6951 60.2846 30.3835 60.5C30.0753 60.7121 29.9212 60.9822 29.9212 61.3104C29.9212 61.602 30.0272 61.8324 30.2393 62.0014C30.4515 62.1705 30.7829 62.3113 31.2337 62.424L32.3672 62.7024C33.05 62.8681 33.5587 63.1217 33.8935 63.4631C34.2282 63.8011 34.3956 64.237 34.3956 64.7706C34.3956 65.2081 34.2696 65.5992 34.0178 65.9439C33.7692 66.2886 33.4212 66.5604 32.9737 66.7592C32.5263 66.9581 32.0059 67.0575 31.4126 67.0575C30.6338 67.0575 29.9891 66.8885 29.4787 66.5504C28.9683 66.2124 28.6451 65.7185 28.5092 65.0689L29.6229 64.7905C29.7289 65.2015 29.9295 65.5097 30.2244 65.7152C30.5227 65.9207 30.9122 66.0234 31.3928 66.0234C31.9396 66.0234 32.3738 65.9074 32.6953 65.6754C33.0201 65.4401 33.1825 65.1584 33.1825 64.8303C33.1825 64.5651 33.0897 64.343 32.9041 64.1641C32.7185 63.9818 32.4335 63.8459 32.049 63.7564L30.7763 63.4581C30.0769 63.2924 29.5632 63.0355 29.2351 62.6875C28.9103 62.3362 28.7479 61.897 28.7479 61.37C28.7479 60.9392 28.8688 60.558 29.1108 60.2266C29.3561 59.8951 29.6892 59.6349 30.1101 59.446C30.5343 59.2571 31.0149 59.1626 31.5518 59.1626C32.3075 59.1626 32.9008 59.3284 33.3317 59.6598C33.7659 59.9912 34.0741 60.4287 34.2564 60.9723ZM39.4828 59.2621V60.2564H35.5254V59.2621H39.4828ZM36.6788 57.4325H37.8521V64.7109C37.8521 65.0424 37.9002 65.291 37.9963 65.4567C38.0957 65.6191 38.2217 65.7285 38.3741 65.7848C38.5299 65.8378 38.694 65.8643 38.8663 65.8643C38.9956 65.8643 39.1016 65.8577 39.1845 65.8445C39.2673 65.8279 39.3336 65.8146 39.3833 65.8047L39.622 66.8587C39.5424 66.8885 39.4314 66.9183 39.2889 66.9482C39.1464 66.9813 38.9657 66.9979 38.747 66.9979C38.4155 66.9979 38.0907 66.9266 37.7725 66.7841C37.4577 66.6416 37.1958 66.4245 36.987 66.1328C36.7815 65.8411 36.6788 65.4732 36.6788 65.0291V57.4325Z" fill="#1E1F26"/>
</svg>
